<svg width="800" height="600" xmlns="http://www.w3.org/2000/svg" style="vector-effect: non-scaling-stroke;" stroke="null">
 <!-- Created with Method Draw - http://github.com/duopixel/Method-Draw/ -->
 <defs>
  <linearGradient y2="0" x2="1" y1="0" x1="0" id="svg_5">
   <stop offset="0" stop-color="#0fffff"/>
   <stop offset="1" stop-color="#f00000"/>
  </linearGradient>
 </defs>
 <g stroke="null">
  <title stroke="null">background</title>
  <rect stroke="null" fill="url(#svg_5)" id="canvas_background" height="602" width="802" y="-1" x="-1"/>
  <g style="vector-effect: non-scaling-stroke;" stroke="null" display="none" overflow="visible" y="0" x="0" height="100%" width="100%" id="canvasGrid">
   <rect fill="url(#gridpattern)" stroke-width="0" y="0" x="0" height="100%" width="100%"/>
  </g>
 </g>
 <g stroke="null">
  <title stroke="null">Layer 1</title>
  <path stroke="#000" d="m-52.5,206.453125c1,0 1.933418,-0.137039 8,-3c8.906841,-4.203354 21.830231,-9.443192 37,-15c17.81599,-6.526138 38.624981,-14.007095 67,-24c31.622414,-11.136551 64.943382,-21.183014 97,-31c29.94809,-9.171272 46,-15 58,-18c4,-1 5,-2 6,-2c2,0 6,0 12,0c7,0 12.118332,-0.471855 13,0c3.178925,1.701309 3.475449,7.861938 5,14c1.466263,5.903397 2.986923,10.757111 4,17c0.800919,4.93544 0.496216,13.017609 0,20c-0.501266,7.053284 -3.510635,15.264008 -8,23c-5.429169,9.355438 -13.734283,18.278046 -20,24c-5.767258,5.266754 -11.129807,8.492706 -12,8c-5.074097,-2.87291 -7.122131,-10.700882 -9,-20c-2.580887,-12.780411 -3.293747,-26.315842 0,-37c2.901489,-9.411774 8.194092,-15.88855 11,-21c1.076019,-1.960144 1,-2 1,-1c0,2 0,7 0,13c0,9 0.946457,23.02359 0,42c-1.001236,20.074799 -2.443985,41.05072 -5,66c-2.464996,24.060822 -5.289276,47.971527 -8,77c-2.239182,23.978882 -5.232056,47.980988 -7,71c-1.15123,14.989166 -2.496231,23.907776 -3,28c-0.366547,2.977509 0,4 0,4c1,0 1.497559,-2.925781 2,-8c0.7883,-7.96106 -0.320374,-17.0578 2,-29c3.516937,-18.100586 8.969681,-38.437195 20,-63c10.076202,-22.438141 21.659805,-42.976257 38,-64c13.912842,-17.900635 30.480438,-35.480103 49,-55c15.573853,-16.415085 31.2099,-33.074799 54,-49c26.153503,-18.275497 60.800354,-34.45845 104,-53c35.838409,-15.382065 68,-25 96,-32c16,-4 22,-5 22,-5c-1,0 -1.984497,0.080742 -7,1c-5.983093,1.096603 -12.755493,4.603073 -22,8c-16.63269,6.11174 -35.32666,12.340508 -54,22c-16.305206,8.434479 -31.310669,19.747772 -41,32c-9.304443,11.765518 -19.348602,26.819977 -28,44c-11.466797,22.770859 -21.250885,41.876999 -29,58c-6.202332,12.904694 -8.693451,21.541199 -10,21c-1.847748,-0.765381 0.559784,-14.740829 14,-31c18.943146,-22.916306 60.808685,-46.414948 106,-67c26.888428,-12.247925 42.07843,-18.210144 45,-17c4.131714,1.711411 3.2948,10.311661 1,17c-2.616516,7.62587 -12.644531,20.610535 -29,33c-26.11087,19.779327 -58.41568,31.260284 -82,45c-8.15155,4.748917 -8.229767,3.973251 -8,3c1.027496,-4.352509 7.4505,-10.716919 19,-19c7.666229,-5.498077 11.809021,-7.321442 15,-9c4.765991,-2.50705 10,-5 15,-5c4,0 6.188751,-0.584717 7,0c2.565369,1.849014 2.980591,7.097092 2,12c-2.5495,12.747543 -18.747131,25.297607 -34,38c-14.761017,12.292786 -26.778442,22.2948 -40,32c-9.840088,7.223053 -11.981842,10.035553 -10,9c11.105347,-5.802704 41.944458,-18.191833 90,-32c52.939636,-15.211578 83.422913,-18.157715 96,-25c1.242249,-0.675827 1.075989,-4.039856 0,-6c-2.805908,-5.11145 -9.6745,-16.571594 -19,-32c-12.963135,-21.446625 -30.169861,-53.192764 -43,-91c-9.66748,-28.487541 -13.998596,-55.921288 -15,-75c-0.628967,-11.983505 0.17627,-22.513742 -2,-22c-0.973267,0.229753 0,2 0,5c0,4 0.310669,9.009663 0,14c-0.500977,8.046677 -1.381836,19.005608 -1,32c0.500244,17.022041 1,39 1,59c0,21 0.515869,46.078629 4,66c2.635376,15.068344 6.139648,28.977554 8,41c2.162598,13.9758 3.49585,28.9422 5,44c1.494263,14.958862 1,30 1,42c0,13 0.917175,29.006165 2,43c0.928955,12.005707 1.745667,28.023193 1,40c-0.500977,8.046692 -1.789856,12.07843 -3,15c-0.855713,2.065857 -1.852722,5.173096 -3,6c-1.813965,1.307465 -4,2 -9,2c-5,0 -12.332886,-2.528473 -21,-9c-12.516327,-9.345642 -25.630157,-23.483582 -37,-38c-10.608673,-13.544586 -17.269257,-25.885101 -21,-35c-3.23645,-7.907288 -4.601837,-17.50177 -2,-23c4.546936,-9.608612 22.473145,-21.154358 39,-28c11.686249,-4.840607 20.011597,-6.627167 26,-7c8.046692,-0.500977 23.029907,-2.773865 39,-5c13.026978,-1.815887 23,-3 25,-3c0,0 2,3 3,5c1,2 1,4 1,5c0,3 0,4 0,6c0,1 -1.173096,1.852722 -2,3c-1.307434,1.813995 -1.69342,3.458801 -3,4c-0.923889,0.38269 -2.852722,2.173096 -4,3c-1.813965,1.307465 -3.186035,1.692535 -5,3c-2.294556,1.653809 -6.07843,3.789856 -9,5c-4.131714,1.711426 -8.079712,3.847961 -12,6c-5.11145,2.805908 -12.669067,6.573364 -21,11c-8.697327,4.621307 -23.825287,10.360931 -38,17c-15.81543,7.407562 -35,16 -56,25c-21,9 -41.085938,17.806793 -57,25c-15.083649,6.817871 -40.088226,14.668091 -67,22c-28.096375,7.654633 -57.009766,7.790253 -56,15c0.138702,0.990326 3.718964,-1.803101 17,-6c23.588867,-7.454224 65.976349,-15.150208 129,-25c64.975983,-10.154907 131.816406,-23.226898 208,-34c63.862671,-9.030823 119.961792,-14.360138 156,-18c10.989441,-1.109924 12.025818,-1.320374 14,-1c3.12146,0.506531 4,1 4,1c0,1 -0.852722,1.173096 -2,2c-1.813965,1.307465 -4.053528,1.540497 -6,2c-2.17627,0.513733 -3.82373,3.486267 -6,4c-1.946472,0.459503 -2.292908,0.292908 -3,1c-0.707092,0.707092 -1,1 -4,3c-3,2 -8.247375,6.605743 -18,13c-14.387878,9.43338 -30,20 -50,32c-30,18 -67,39 -113,66l-71,37l-88,36l-109,42" id="svg_1" stroke-width="18.5" fill="none"/>
  <polyline stroke-linecap="round" id="svg_3" points="-113.5,-103.546875 -113.5,-103.546875 " stroke-width="18.5" fill="none"/>
 </g>
</svg>